<?xml version="1.0" encoding="UTF-8" standalone="no"?>
<svg width="179px" height="45px" viewBox="0 0 179 45" version="1.1" xmlns="http://www.w3.org/2000/svg" xmlns:xlink="http://www.w3.org/1999/xlink">
    <!-- Generator: Sketch 46.2 (44496) - http://www.bohemiancoding.com/sketch -->
    <title>logos/TL/logo-tl-white</title>
    <desc>Created with Sketch.</desc>
    <defs>
        <path d="M37.2409183,9.40747253 L22.2097731,0.635934066 C20.7567086,-0.211648352 18.8789774,-0.211648352 17.4229774,0.635934066 L2.39183226,9.40747253 C0.914794624,10.2634615 -9.78494623e-05,11.8730769 -9.78494623e-05,13.5993956 L-9.78494623e-05,31.139011 C-9.78494623e-05,32.8648352 0.914794624,34.4650549 2.39183226,35.3284615 L17.4229774,44.0995055 C18.1524452,44.5203297 18.9792731,44.7448352 19.817843,44.7448352 C20.6569022,44.7448352 21.4832409,44.5203297 22.2097731,44.0995055 L37.2409183,35.3284615 C38.7179559,34.4650549 39.6357839,32.8648352 39.6357839,31.139011 L39.6357839,13.5993956 C39.6357839,11.8730769 38.7179559,10.2634615 37.2409183,9.40747253 L37.2409183,9.40747253 Z" id="path-1"></path>
    </defs>
    <g id="Symbols" stroke="none" stroke-width="1" fill="none" fill-rule="evenodd">
        <g id="logos/TL/logo-tl-white">
            <g id="truelogic" transform="translate(52.349462, 15.824176)" fill="#FFFFFF">
                <path d="M123.455506,8.86586914 C122.660729,9.83740846 121.841971,10.4812824 120.46196,10.4812824 C118.604054,10.4812824 117.294842,8.92258046 117.294842,6.92336334 L117.294842,6.88784717 C117.294842,4.94534137 118.604054,3.36544429 120.46196,3.36544429 C121.731776,3.36544429 122.604204,3.98124899 123.363581,4.92758328 L126.133311,2.77828167 C124.95599,1.14224611 123.210564,0 120.497359,0 C116.478939,0 113.505376,3.04522584 113.505376,6.92336334 L113.505376,6.96632646 C113.505376,10.9366915 116.55716,13.8461538 120.34891,13.8461538 C123.28536,13.8461538 124.97369,12.572727 126.225806,10.844464 L123.455506,8.86586914 Z" id="Fill-29"></path>
                <polygon id="Fill-27" points="106.166667 13.8461538 109.591398 13.8461538 109.591398 0.494505495 106.166667 0.494505495"></polygon>
                <path d="M96.2729176,8.50268758 L98.8356764,8.50268758 L98.8356764,10.1215379 C98.2972958,10.4812824 97.6275346,10.6697473 96.7553916,10.6697473 C94.6963513,10.6697473 93.2310391,9.13224048 93.2310391,6.9806475 L93.2310391,6.94513132 C93.2310391,4.90982519 94.6784612,3.29040204 96.5541278,3.29040204 C97.8321528,3.29040204 98.7629978,3.74982099 99.6899293,4.54664363 L101.808231,1.94651569 C100.432928,0.722353233 98.814991,0 96.5367968,0 C92.5048123,0 89.5322581,3.04522584 89.5322581,6.92336334 L89.5322581,6.96632646 C89.5322581,10.9968398 92.5601599,13.8461538 96.60668,13.8461538 C98.967616,13.8461538 100.877945,12.9530938 102.252688,11.7942353 L102.252688,5.79944816 L96.2729176,5.79944816 L96.2729176,8.50268758 Z" id="Fill-25"></path>
                <path d="M82.8729457,6.96632646 C82.8729457,8.88362723 81.5357218,10.5167986 79.5225199,10.5167986 C77.5263166,10.5167986 76.1539623,8.84410116 76.1539623,6.92336334 L76.1539623,6.88784717 C76.1539623,4.9665365 77.4911861,3.32649106 79.4834231,3.32649106 C81.496625,3.32649106 82.8729457,5.00606257 82.8729457,6.92336334 L82.8729457,6.96632646 Z M79.5225199,0 C75.4570193,0 72.4086022,3.10193716 72.4086022,6.92336334 L72.4086022,6.96632646 C72.4086022,10.7871798 75.4184891,13.8461538 79.4834231,13.8461538 C83.548357,13.8461538 86.5967742,10.7482266 86.5967742,6.92336334 L86.5967742,6.88784717 C86.5967742,3.06642098 83.5874538,0 79.5225199,0 L79.5225199,0 Z" id="Fill-23"></path>
                <path d="M63.3044073,12.0096865 C63.0196558,12.1521653 62.1722814,11.4584868 62.5637456,11.0839052 C62.9723502,10.6943864 63.7387483,9.71738912 63.7387483,8.63102437 L63.7387483,0.494505495 L60.1774194,0.494505495 L60.1774194,13.8461538 L69.9623656,13.8461538 L69.9623656,10.6030362 L65.961939,10.6030362 C64.3822593,10.6064832 63.5968996,11.863186 63.3044073,12.0096865 Z" id="Fill-31"></path>
                <polygon id="Fill-21" points="49.6293614 8.5796065 55.9944262 8.5796065 55.9944262 5.66510942 49.6293614 5.66510942 49.6293614 3.64167975 56.6574062 3.64167975 56.6574062 0.494505495 45.9892473 0.494505495 45.9892473 13.8461538 56.7526882 13.8461538 56.7526882 10.7030012 49.6293614 10.7030012"></polygon>
                <path d="M38.3782442,7.87417596 C38.3782442,9.70992892 37.4205301,10.5716894 35.9613715,10.5716894 C34.4988247,10.5716894 33.5411107,9.67157832 33.5411107,7.7799914 L33.5411107,0.494505495 L29.844086,0.494505495 L29.844086,7.8566926 C29.844086,11.9590788 32.1903725,13.8461538 35.9224079,13.8461538 C39.655008,13.8461538 42.0752688,11.9940455 42.0752688,7.75856019 L42.0752688,0.494505495 L38.3782442,0.494505495 L38.3782442,7.87417596 Z" id="Fill-19"></path>
                <path d="M22.7675066,5.32212602 C22.7675066,6.29247603 22.0465455,6.90662887 20.7927249,6.90662887 L18.3634118,6.90662887 L18.3634118,3.69855639 L20.775001,3.69855639 C22.0076673,3.69855639 22.7675066,4.23342664 22.7675066,5.28305924 L22.7675066,5.32212602 Z M26.4717946,5.09347043 L26.4717946,5.05440364 C26.4717946,3.73762318 26.0704348,2.70637495 25.2928717,1.94342362 C24.400961,1.03339733 22.9944864,0.494505495 20.9631027,0.494505495 L14.6774194,0.494505495 L14.6774194,13.8461538 L18.3634118,13.8461538 L18.3634118,9.80331609 L19.9762836,9.80331609 L22.6537308,13.8461538 L26.9086022,13.8461538 L23.7371736,9.19318483 C25.3883518,8.48653562 26.4717946,7.13470995 26.4717946,5.09347043 L26.4717946,5.09347043 Z" id="Fill-17"></path>
                <path d="M0,3.73762318 L2.14553275,3.73762318 C3.12425463,3.73762318 4.1995425,2.21905842 4.40682426,2.12254048 C4.7073828,1.97604004 5.70577476,2.7416404 5.29812064,3.11277486 C4.97280345,3.40922282 4.01665973,4.40684224 4.01665973,5.70023824 L4.01665973,13.8461538 L7.72527575,13.8461538 L7.72527575,3.73762318 L11.7419355,3.73762318 L11.7419355,0.494505495 L0,0.494505495 L0,3.73762318 Z" id="Fill-30"></path>
            </g>
            <g id="iso">
                <mask id="mask-2" fill="white">
                    <use xlink:href="#path-1"></use>
                </mask>
                <use id="Combined-Shape" fill="#00C6C0" xlink:href="#path-1"></use>
                <path d="M31.883171,28.7584615 L22.4803269,28.7584615 L22.4803269,15.9883516 L26.7015527,15.9883516 L26.7015527,23.3273926 C26.7015527,24.2722168 25.7992322,25.2968786 25.4709473,25.6069336 C25.1367914,25.9110545 26.0650716,26.5973315 26.3082275,26.4776611 C26.5543189,26.3579908 27.1068868,25.11 28.428833,25.11 C28.434704,25.11 29.58615,25.11 31.883171,25.11 L31.883171,28.7584615 Z" id="Path" fill="#FFFFFF" mask="url(#mask-2)"></path>
                <path d="M20.6202086,19.5972527 L16.9033968,19.5972527 L16.9033968,28.7584615 L12.682171,28.7584615 L12.682171,21.3878174 C12.6885312,19.9868833 13.421366,19.7241789 13.864624,19.3122559 C14.1963337,19.0056625 13.4366432,18.2963515 13.1905518,18.4155273 C13.0085518,18.5070109 11.9404297,19.5972527 11.0351562,19.5972527 L8.96242366,19.5972527 L8.96242366,15.9883516 L20.6202086,15.9883516 L20.6202086,19.5972527 Z" id="Path" fill="#FFFFFF" mask="url(#mask-2)"></path>
            </g>
        </g>
    </g>
</svg>